<?xml version="1.0" encoding="utf-8"?>

<svg xmlns="http://www.w3.org/2000/svg">
    <symbol id="add" width="12" height="12" viewBox="0 0 12 12">
        <g id="SVGRepo_bgCarrier" stroke-width="0"></g>
        <g id="SVGRepo_tracerCarrier" stroke-linecap="round" stroke-linejoin="round"></g>
        <g id="SVGRepo_iconCarrier">
            <circle cx="12" cy="12" r="8" fill="#2A4157" fill-opacity="0.24"></circle>
            <path d="M8.5 11L11.3939 13.8939C11.4525 13.9525 11.5475 13.9525 11.6061 13.8939L19.5 6"
                stroke="#222222" stroke-width="1.2"></path>
            <path
                d="M19.3578 10.5465C19.6899 12.2277 19.4363 13.9719 18.6391 15.4889C17.8419 17.0059 16.5493 18.2041 14.9763 18.8842C13.4033 19.5642 11.6449 19.6851 9.99369 19.2267C8.34247 18.7682 6.89803 17.7582 5.90077 16.3646C4.90351 14.9709 4.41358 13.2778 4.51251 11.567C4.61144 9.85619 5.29327 8.23085 6.44453 6.96147C7.59578 5.6921 9.14703 4.85527 10.8401 4.59024C12.5331 4.32521 14.2659 4.64797 15.75 5.50481"
                stroke="#222222" stroke-linecap="round"></path>
        </g>
    </symbol>
    <symbol id="close" width="12" height="12" viewBox="0 0 12 12">
        <circle cx="10" cy="10" r="7.5" fill="#E9A23B" fill-opacity="0.25" />
        <path d="M7.5 7.5L12.5 12.5" stroke="#E9A23B" stroke-width="1.2" stroke-linecap="round" />
        <path d="M12.5 7.5L7.5 12.5" stroke="#E9A23B" stroke-width="1.2" stroke-linecap="round" />
    </symbol>
    <symbol id="close1" width="12" height="12" viewBox="0 0 12 12">
        <circle cx="10" cy="10" r="7.5" fill="#F8FAFC" fill-opacity="0.25" />
        <path d="M7.5 7.5L12.5 12.5" stroke="#F8FAFC" stroke-width="1.2" stroke-linecap="round" />
        <path d="M12.5 7.5L7.5 12.5" stroke="#F8FAFC" stroke-width="1.2" stroke-linecap="round" />
    </symbol>
    <symbol id="done_round" width="12" height="12" viewBox="0 0 12 12">
        <path
            d="M4.16667 11.6667L6.73309 13.5915C7.16178 13.913 7.76772 13.8395 8.10705 13.4247L15 5"
            stroke="#FEF7EE" stroke-width="2" stroke-linecap="round" />
    </symbol>
    <symbol id="done_round_duotone" width="12" height="12" viewBox="0 0 12 12">
        <circle cx="10" cy="9.99998" r="6.66667" fill="#F8FAFC" fill-opacity="0.25" />
        <path
            d="M7.08333 9.16667L8.87623 10.9596C9.26675 11.3501 9.89992 11.3501 10.2904 10.9596L16.25 5"
            stroke="#F8FAFC" stroke-width="1.2" stroke-linecap="round" />
    </symbol>
    <symbol id="edit_duotone" width="12" height="12" viewBox="0 0 12 12">
        <path
            d="M13.5 5.5L6.45321 12.5468C6.22845 12.7716 6.11607 12.8839 6.04454 13.0229C5.97301 13.1619 5.94689 13.3187 5.89463 13.6322L5.11508 18.3095C5.06262 18.6243 5.03639 18.7817 5.12736 18.8726C5.21833 18.9636 5.37571 18.9374 5.69048 18.8849L10.3678 18.1054L10.3678 18.1054C10.6813 18.0531 10.8381 18.027 10.9771 17.9555C11.1161 17.8839 11.2284 17.7716 11.4532 17.5468L11.4532 17.5468L18.5 10.5C19.5171 9.48295 20.0256 8.97442 20.1384 8.36277C20.1826 8.12295 20.1826 7.87705 20.1384 7.63723C20.0256 7.02558 19.5171 6.51705 18.5 5.5C17.4829 4.48295 16.9744 3.97442 16.3628 3.8616C16.1229 3.81737 15.8771 3.81737 15.6372 3.8616C15.0256 3.97442 14.5171 4.48294 13.5 5.5Z"
            fill="#030616" fill-opacity="0.25" />
        <path
            d="M12.2929 6.70711L6.45321 12.5468C6.22845 12.7716 6.11607 12.8839 6.04454 13.0229C5.97301 13.1619 5.94689 13.3187 5.89463 13.6322L5.11508 18.3095C5.06262 18.6243 5.03639 18.7817 5.12736 18.8726C5.21833 18.9636 5.37571 18.9374 5.69048 18.8849L10.3678 18.1054L10.3678 18.1054C10.6813 18.0531 10.8381 18.027 10.9771 17.9555C11.1161 17.8839 11.2284 17.7716 11.4532 17.5468L11.4532 17.5468L17.2929 11.7071C17.6262 11.3738 17.7929 11.2071 17.7929 11C17.7929 10.7929 17.6262 10.6262 17.2929 10.2929L17.2929 10.2929L13.7071 6.70711C13.3738 6.37377 13.2071 6.20711 13 6.20711C12.7929 6.20711 12.6262 6.37377 12.2929 6.70711Z"
            fill="#030616" />
    </symbol>
    <symbol id="time_atack_duotone" width="12" height="12" viewBox="0 0 12 12">
        <circle cx="10" cy="10" r="7.5" fill="#F8FAFC" fill-opacity="0.25" />
        <path
            d="M9.99999 4.46669C9.99999 4.32388 9.99999 4.25248 10.0467 4.20813C10.0934 4.16377 10.1622 4.16731 10.2999 4.1744C11.2196 4.22174 12.1166 4.4863 12.9167 4.94821C13.8034 5.46019 14.5398 6.19658 15.0518 7.08335C15.5638 7.97013 15.8333 8.97606 15.8333 10C15.8333 11.024 15.5638 12.0299 15.0518 12.9167C14.5398 13.8035 13.8034 14.5399 12.9167 15.0518C12.0299 15.5638 11.024 15.8334 9.99999 15.8334C8.97603 15.8334 7.9701 15.5638 7.08332 15.0518C6.28329 14.5899 5.60566 13.9454 5.10479 13.1725C5.02983 13.0569 4.99235 12.999 5.00741 12.9364C5.02247 12.8738 5.08431 12.8381 5.20798 12.7667L9.84999 10.0866C9.92319 10.0444 9.9598 10.0232 9.97989 9.98842C9.99999 9.95361 9.99999 9.91135 9.99999 9.82682V4.46669Z"
            fill="#F8FAFC" />
    </symbol>
    <symbol id="trash" width="12" height="12" viewBox="0 0 12 12">
        <path d="M8.33333 12.5L8.33333 10" stroke="#FEF7EE" stroke-width="2" stroke-linecap="round" />
        <path d="M11.6667 12.5L11.6667 10" stroke="#FEF7EE" stroke-width="2" stroke-linecap="round" />
        <path
            d="M2.5 5.83331H17.5V5.83331C17.0353 5.83331 16.803 5.83331 16.6098 5.87174C15.8164 6.02956 15.1962 6.64975 15.0384 7.44313C15 7.63633 15 7.86866 15 8.33331V12.6666C15 14.5523 15 15.4951 14.4142 16.0809C13.8284 16.6666 12.8856 16.6666 11 16.6666H9C7.11438 16.6666 6.17157 16.6666 5.58579 16.0809C5 15.4951 5 14.5523 5 12.6666V8.33331C5 7.86866 5 7.63633 4.96157 7.44313C4.80376 6.64975 4.18356 6.02956 3.39018 5.87174C3.19698 5.83331 2.96466 5.83331 2.5 5.83331V5.83331Z"
            stroke="#FEF7EE" stroke-width="2" stroke-linecap="round" />
        <path
            d="M8.39013 2.80883C8.48509 2.72023 8.69433 2.64194 8.9854 2.5861C9.27648 2.53027 9.63311 2.5 10 2.5C10.3669 2.5 10.7235 2.53027 11.0146 2.5861C11.3057 2.64194 11.5149 2.72023 11.6099 2.80883"
            stroke="#FEF7EE" stroke-width="2" stroke-linecap="round" />
    </symbol>
</svg>