<?xml version="1.0" encoding="utf-8"?>

<svg xmlns="http://www.w3.org/2000/svg">
    <symbol id="add" width="24" height="24" viewBox="0 0 24 24" fill="none">
        <circle cx="12" cy="12" r="9" fill="#F8FAFC" fill-opacity="0.25" />
        <path d="M12 8L12 16" stroke="#F8FAFC" stroke-width="1.2" stroke-linecap="round" />
        <path d="M16 12L8 12" stroke="#F8FAFC" stroke-width="1.2" stroke-linecap="round" />
    </symbol>
    <symbol id="close" width="24" height="24" viewBox="0 0 24 24" fill="none">
        <path cx="10" cy="10" r="7.5" fill="#E9A23B" fill-opacity=".25"
            d="M21 12A9 9 0 0 1 12 21A9 9 0 0 1 3 12A9 9 0 0 1 21 12z" />
        <path d="m9 9 6 6m0 -6 -6 6" stroke="#E9A23B" stroke-width="1.44" stroke-linecap="round" />
    </symbol>
    <symbol id="close1" width="24" height="24" viewBox="0 0 24 24" fill="none">
        <path fill="#F8FAFC" fill-opacity=".25"
            d="M21 12a9 9 0 0 1-9 9 9 9 0 0 1-9-9 9 9 0 0 1 18 0" />
        <path d="m9 9 6 6m0-6-6 6" stroke="#F8FAFC" stroke-width="1.44" stroke-linecap="round" />
    </symbol>
    <symbol id="done_round" width="24" height="24" viewBox="0 0 24 24" fill="none">
        <path d="m5 14 3.079 2.31a1.2 1.2 0 0 0 1.649-.2L18 6" stroke="#FEF7EE" stroke-width="2.4"
            stroke-linecap="round" />
    </symbol>
    <symbol id="done_round_duotone" width="24" height="24" viewBox="0 0 24 24" fill="none">
        <path cx="10" cy="9.99998" r="6.66667" fill="#F8FAFC" fill-opacity="0.25"
            d="M20 12a8 8 0 0 1 -8 8 8 8 0 0 1 -8 -8 8 8 0 0 1 16 0" />
        <path d="m8.5 11 2.152 2.152a1.2 1.2 0 0 0 1.697 0L19.5 6" stroke="#F8FAFC"
            stroke-width="1.44" stroke-linecap="round" />
    </symbol>
    <symbol id="edit_duotone" width="24" height="24" viewBox="0 0 24 24" fill="none">
        <path
            d="m13.5 5.5-7.047 7.047c-.225.225-.337.337-.408.476-.072.139-.098.296-.15.61l-.78 4.677c-.052.314-.079.472.012.563s.249.064.563.012l4.678-.78c.313-.052.47-.078.61-.15.138-.071.25-.183.475-.408L18.5 10.5c1.017-1.017 1.526-1.526 1.638-2.137.045-.24.045-.486 0-.726-.112-.611-.62-1.12-1.638-2.137s-1.526-1.526-2.137-1.638a2 2 0 0 0-.726 0c-.611.112-1.12.62-2.137 1.638"
            fill="#030616" fill-opacity=".25" />
        <path
            d="m12.293 6.707-5.84 5.84c-.225.225-.337.337-.408.476-.072.139-.098.296-.15.61l-.78 4.677c-.052.314-.079.472.012.563s.249.064.563.012l4.678-.78c.313-.052.47-.078.61-.15.138-.071.25-.183.475-.408l5.84-5.84c.333-.333.5-.5.5-.707s-.167-.374-.5-.707l-3.586-3.586c-.333-.333-.5-.5-.707-.5s-.374.167-.707.5"
            fill="#030616" />
    </symbol>
    <symbol id="time_atack_duotone" width="24" height="24" viewBox="0 0 24 24" fill="none">
        <path fill="#F8FAFC" fill-opacity=".25"
            d="M21 12a9 9 0 0 1-9 9 9 9 0 0 1-9-9 9 9 0 0 1 18 0" />
        <path
            d="M12 5.36c0-.172 0-.258.056-.311.055-.053.138-.048.304-.041a7.001 7.001 0 1 1-6.234 10.799c-.09-.139-.136-.209-.118-.284s.092-.118.241-.204l5.57-3.216c.088-.05.132-.076.156-.118s.024-.092.024-.193z"
            fill="#F8FAFC" />
    </symbol>
    <symbol id="trash" width="24" height="24" viewBox="0 0 24 24" fill="none">
        <path
            d="M10 15v-3m4 3v-3M3 7h18v0c-.558 0-.836 0-1.068.047a2.4 2.4 0 0 0-1.886 1.885C18 9.163 18 9.444 18 10v5.201c0 2.262 0 3.394-.703 4.097s-1.834.703-4.097.703h-2.4c-2.263 0-3.394 0-4.097-.703S6 17.462 6 15.2V10c0-.557 0-.836-.046-1.068a2.4 2.4 0 0 0-1.886-1.886c-.232-.047-.51-.047-1.068-.047zm7.068-3.629c.114-.107.365-.2.714-.268A6.7 6.7 0 0 1 12 3c.44 0 .868.036 1.218.103.348.067.6.161.714.268"
            stroke="#FEF7EE" stroke-width="2.4" stroke-linecap="round" />
    </symbol>
    <symbol id="logo" width="40" height="40" viewBox="0 0 40 40" fill="none">
        <path
            d="M16.3256 15.7191C18.3549 14.5476 21.645 14.5476 23.6742 15.7191L36.3256 23.0228C38.3548 24.1942 38.3548 26.0936 36.3256 27.2651L23.6742 34.5687C21.645 35.7402 18.3549 35.7402 16.3256 34.5687L3.6743 27.2651C1.64504 26.0936 1.64504 24.1942 3.6743 23.0228L16.3256 15.7191Z"
            fill="#E9A23B" fill-opacity="0.2" />
        <path
            d="M16.3258 10.5097C18.355 9.33817 21.6451 9.33817 23.6744 10.5097L36.3257 17.8133C38.355 18.9848 38.355 20.8842 36.3257 22.0556L23.6744 29.3593C21.6451 30.5308 18.355 30.5308 16.3258 29.3593L3.67442 22.0556C1.64516 20.8841 1.64516 18.9848 3.67442 17.8133L16.3258 10.5097Z"
            fill="#E9A23B" fill-opacity="0.5" />
        <path
            d="M16.3258 5.12118C18.355 3.94968 21.6451 3.94968 23.6744 5.12118L36.3257 12.4248C38.355 13.5963 38.355 15.4957 36.3257 16.6672L23.6744 23.9708C21.6451 25.1423 18.355 25.1423 16.3258 23.9708L3.67442 16.6671C1.64516 15.4957 1.64516 13.5963 3.67442 12.4248L16.3258 5.12118Z"
            fill="#E9A23B" />
    </symbol>

</svg>